<svg xmlns="http://www.w3.org/2000/svg" width="841.59024" height="589" viewBox="0 0 841.59024 589"
    xmlns:xlink="http://www.w3.org/1999/xlink" role="img" artist="Katerina Limpitsouni"
    source="https://undraw.co/">
<polygon points="743.208 574.193 729.128 574.192 722.43 519.885 743.21 519.886 743.208 574.193"
    fill="#ffb8b8" />
<path
    d="M926.00334,743.34094l-45.39888-.00169V742.765A17.67147,17.67147,0,0,1,898.275,725.0948h.00112l27.72809.00112Z"
    transform="translate(-179.20488 -155.5)" fill="#2f2e41" />
<polygon points="805.349 539.578 796.21 550.289 750.55 520.133 764.039 504.326 805.349 539.578"
    fill="#ffb8b8" />
<path
    d="M997.26727,701.20576l-29.46919,34.5344-.43682-.37273a17.67143,17.67143,0,0,1-1.97223-24.91172l.00073-.00086,17.99885-21.09237Z"
    transform="translate(-179.20488 -155.5)" fill="#2f2e41" />
<polygon
    points="643.236 307.117 638.853 347.537 816.024 345.01 738.759 219.114 675.673 216.848 643.236 307.117"
    fill="#2f2e41" />
<polygon
    points="643.236 307.117 638.853 347.537 816.024 345.01 738.759 219.114 675.673 216.848 643.236 307.117"
    opacity="0.28" />
<path
    d="M857.27966,469.55618l-6.25477,36.98405v33.05813L901.455,556.05955s-5.90374,128.40409,1.96683,136.58258l-.19337,19.74247,22,1,.17941-13.89387L934.735,595.635l5.49349-76.25041-8.90664-57.8109Z"
    transform="translate(-179.20488 -155.5)" fill="#2f2e41" />
<path
    d="M896.35029,501.39223l-45.3254,38.20613s-2.6527,68.93184,4.08383,77.01567c5.786,6.94318,81.03774,66.83187,81.03774,66.83187s13.37442,12.26792,20.86947,12.46353,16.21255-15.52483,16.21255-15.52483l-17.35829-13.18827S910.901,625.22041,897.54884,608.5302c-5.38922-6.73653-5.38922-7.41018-5.38922-7.41018l1.84061-28.01427,18.52508-51.99127Z"
    transform="translate(-179.20488 -155.5)" fill="#2f2e41" />
<polygon
    points="669.024 162.885 649.482 161.079 631.756 164.033 594.222 164.045 591.024 191.249 625.277 198.914 633.624 194.823 668.419 208.08 669.024 162.885"
    fill="#2f2e41" />
<path
    d="M871.56928,318.29985s41.47357-3.88605,50.90471,3.52413,29.64072,154.26646,29.64072,154.26646l-80.54543,4.54583-14.4396-9.93505,4.0988-73.31662Z"
    transform="translate(-179.20488 -155.5)" fill="#ccc" />
<polygon points="705.024 161.885 659.275 162.889 616.622 355.62 650.305 363.031 705.024 161.885"
    fill="#2f2e41" />
<polygon
    points="737.546 160.256 773.583 171.535 771.536 250.722 816.024 345.396 763.725 350.905 722.386 248.675 737.546 160.256"
    fill="#2f2e41" />
<path
    d="M976.17566,510.51266a11.51329,11.51329,0,0,0-.43624-17.64888l7.24981-25.2913-14.29491-8.15427-9.73651,35.86a11.5757,11.5757,0,0,0,17.21785,15.23444Z"
    transform="translate(-179.20488 -155.5)" fill="#ffb8b8" />
<path
    d="M931.90513,329.23416l21.32335-1.84956s19.1431,20.02168,23.4982,35.52394,9.07066,64.00526,9.07066,64.00526l-1.96706,70.95509L958.90513,480.9427l-1.67172-61.03065Z"
    transform="translate(-179.20488 -155.5)" fill="#2f2e41" />
<circle cx="900.23883" cy="279.0718" r="30.2266"
    transform="translate(44.35273 779.63092) rotate(-61.33681)"
    fill="#ffb8b8" />
<path
    d="M896.86876,266.45286c-3.96584-.91637-8.08269.09909-12.09946.75737s-8.44336.87528-11.84109-1.36586c-2.50928-1.65512-4.052-4.39327-5.5007-7.02712a8.08807,8.08807,0,0,1-1.18324-3.10061c-.17057-1.94791,1.06856-3.72514,2.3844-5.17153,6.112-6.71846,15.04376-10.39563,24.051-11.56369a41.55433,41.55433,0,0,1,21.96117,2.68176c6.83748,2.99893,12.71514,8.49079,15.40335,15.45628a43.8945,43.8945,0,0,1,2.30051,11.03757,32.97038,32.97038,0,0,1,.15507,8.35909,35.83247,35.83247,0,0,1-1.61995,6.056l-4.453,13.446a8.85863,8.85863,0,0,1-1.751,3.466,3.02927,3.02927,0,0,1-3.54735.77718,11.03957,11.03957,0,0,0,.15962-4.46052,3.76376,3.76376,0,0,0-2.96974-2.99493c-1.64132-.17418-3.04344,1.09814-4.60042,1.64611a5.65951,5.65951,0,0,1-7.03462-3.81764q-.06393-.21546-.11053-.43552c-.24579-1.53722.1669-3.18288-.41576-4.62647-.68269-1.69135-2.493-2.57757-3.853-3.79294a8.86863,8.86863,0,0,1-2.4334-9.21678c.36409-1.119,1.39236-1.62773,1.18665-2.91325C900.78734,267.96287,898.30087,266.78376,896.86876,266.45286Z"
    transform="translate(-179.20488 -155.5)" fill="#2f2e41" />
<circle cx="594.0236" cy="176.8846" r="12" fill="#ffb8b8" />
</svg>
